# xmcd CD database file
#
# Track frame offsets:
#	150
#	31579
#	65021
#	87596
#	117001
#	142399
#	168386
#	194557
#	212790
#	229112
#
# Disc length: 3468 seconds
#
# Revision: 0
# Processed by: cddbd v1.5.2PL0 Copyright (c) Steve Scherf et al.
# Submitted via: CDex 1.78
#
DISCID=930d8a0a
DTITLE=Bugge Wesseltoft - Somewhere in Between CD1
DYEAR=2016
DGENRE=Jazz
TTITLE0=Wesseltoft - Existence
TTITLE1=Youssef, Wesseltoft, Lonna, Gensollen - Hope
TTITLE2=Wesseltoft - Hands
TTITLE3=Wesseltoft - Oh Ye
TTITLE4=Boine, Wesseltoft - Yoyk
TTITLE5=Wesseltoft - Wy
TTITLE6=Endresen, Wesseltoft - Out Here in there
TTITLE7=Endresen, Wesseltoft - Try
TTITLE8=Kraggerud, Wesseltoft - Den fyrste song
TTITLE9=Schwarz, Wesseltoft - Kammermusikk
EXTD=YEAR: 2016
EXTT0=
EXTT1=
EXTT2=
EXTT3=
EXTT4=
EXTT5=
EXTT6=
EXTT7=
EXTT8=
EXTT9=
PLAYORDER=
